<svg width="22" height="23" viewBox="0 0 22 23" fill="none" xmlns="http://www.w3.org/2000/svg">
<path d="M11 0.318604C12.4587 0.318604 13.8576 0.898066 14.8891 1.92952C15.9205 2.96097 16.5 4.35991 16.5 5.8186C16.5 7.27729 15.9205 8.67624 14.8891 9.70769C13.8576 10.7391 12.4587 11.3186 11 11.3186C9.54131 11.3186 8.14236 10.7391 7.11091 9.70769C6.07946 8.67624 5.5 7.27729 5.5 5.8186C5.5 4.35991 6.07946 2.96097 7.11091 1.92952C8.14236 0.898066 9.54131 0.318604 11 0.318604ZM11 3.0686C10.2707 3.0686 9.57118 3.35833 9.05546 3.87406C8.53973 4.38978 8.25 5.08926 8.25 5.8186C8.25 6.54795 8.53973 7.24742 9.05546 7.76315C9.57118 8.27887 10.2707 8.5686 11 8.5686C11.7293 8.5686 12.4288 8.27887 12.9445 7.76315C13.4603 7.24742 13.75 6.54795 13.75 5.8186C13.75 5.08926 13.4603 4.38978 12.9445 3.87406C12.4288 3.35833 11.7293 3.0686 11 3.0686ZM11 12.6936C14.6713 12.6936 22 14.5224 22 18.1936V22.3186H0V18.1936C0 14.5224 7.32875 12.6936 11 12.6936ZM11 15.3061C6.91625 15.3061 2.6125 17.3136 2.6125 18.1936V19.7061H19.3875V18.1936C19.3875 17.3136 15.0837 15.3061 11 15.3061Z" fill="black"/>
</svg>
