<svg width="22" height="22" viewBox="0 0 22 22" fill="none" xmlns="http://www.w3.org/2000/svg">
<path d="M19.9006 18.5992L16.4998 15.2258C17.8199 13.5799 18.4592 11.4907 18.2862 9.38786C18.1132 7.28503 17.1412 5.32839 15.5698 3.92026C13.9985 2.51213 11.9474 1.75955 9.8383 1.81727C7.72916 1.87498 5.72229 2.7386 4.23034 4.23055C2.73839 5.7225 1.87477 7.72937 1.81705 9.83852C1.75934 11.9477 2.51192 13.9988 3.92005 15.5701C5.32817 17.1414 7.28482 18.1134 9.38765 18.2864C11.4905 18.4594 13.5797 17.8201 15.2256 16.5L18.599 19.8733C18.6842 19.9593 18.7856 20.0275 18.8973 20.074C19.009 20.1205 19.1288 20.1445 19.2498 20.1445C19.3708 20.1445 19.4906 20.1205 19.6023 20.074C19.714 20.0275 19.8154 19.9593 19.9006 19.8733C20.0658 19.7024 20.1582 19.474 20.1582 19.2363C20.1582 18.9985 20.0658 18.7701 19.9006 18.5992ZM10.0831 16.5C8.81403 16.5 7.57343 16.1237 6.51821 15.4186C5.463 14.7135 4.64056 13.7114 4.1549 12.5389C3.66923 11.3664 3.54216 10.0762 3.78975 8.83151C4.03734 7.5868 4.64847 6.44346 5.54586 5.54607C6.44324 4.64868 7.58658 4.03755 8.83129 3.78996C10.076 3.54238 11.3662 3.66945 12.5387 4.15511C13.7112 4.64077 14.7133 5.46321 15.4184 6.51843C16.1235 7.57364 16.4998 8.81424 16.4998 10.0833C16.4998 11.7851 15.8237 13.4172 14.6204 14.6206C13.417 15.824 11.7849 16.5 10.0831 16.5Z" fill="black"/>
</svg>
