<svg width="22" height="22" viewBox="0 0 22 22" fill="none" xmlns="http://www.w3.org/2000/svg">
<path d="M15.2969 3.09375C13.5704 3.09375 12.0381 3.77523 11 4.94656C9.96187 3.77523 8.42961 3.09375 6.70312 3.09375C5.19941 3.09557 3.7578 3.69372 2.69451 4.75701C1.63122 5.8203 1.03307 7.26191 1.03125 8.76562C1.03125 14.9823 10.1243 19.9495 10.511 20.1584C10.6613 20.2393 10.8293 20.2817 11 20.2817C11.1707 20.2817 11.3387 20.2393 11.489 20.1584C11.8757 19.9495 20.9688 14.9823 20.9688 8.76562C20.9669 7.26191 20.3688 5.8203 19.3055 4.75701C18.2422 3.69372 16.8006 3.09557 15.2969 3.09375ZM14.8251 15.3278C13.6282 16.3434 12.3487 17.2576 11 18.0606C9.65126 17.2576 8.3718 16.3434 7.17492 15.3278C5.31266 13.7302 3.09375 11.2939 3.09375 8.76562C3.09375 7.80836 3.47402 6.8903 4.15091 6.21341C4.8278 5.53652 5.74586 5.15625 6.70312 5.15625C8.23281 5.15625 9.51328 5.96406 10.0452 7.26516C10.1227 7.45483 10.2548 7.61714 10.4249 7.73139C10.5949 7.84565 10.7951 7.90666 11 7.90666C11.2049 7.90666 11.4051 7.84565 11.5751 7.73139C11.7452 7.61714 11.8773 7.45483 11.9548 7.26516C12.4867 5.96406 13.7672 5.15625 15.2969 5.15625C16.2541 5.15625 17.1722 5.53652 17.8491 6.21341C18.526 6.8903 18.9062 7.80836 18.9062 8.76562C18.9062 11.2939 16.6873 13.7302 14.8251 15.3278Z" fill="#CCCCCC"/>
</svg>
