<svg width="22" height="22" viewBox="0 0 22 22" fill="none" xmlns="http://www.w3.org/2000/svg">
<path d="M12.7722 0.613161C12.2763 0.217177 11.6486 0 11 0C10.3514 0 9.72371 0.217177 9.22778 0.613161L0.977778 7.20753C0.671561 7.45203 0.425405 7.75695 0.256517 8.10095C0.0876284 8.44496 8.27796e-05 8.81976 0 9.19916V19.9736C0 21.0922 0.958222 22 2.13889 22H5.80556C6.37282 22 6.91686 21.7865 7.31798 21.4065C7.7191 21.0265 7.94444 20.5111 7.94444 19.9736V15.3385C7.94444 14.5511 8.60689 13.9119 9.43189 13.8911H12.5681C12.9663 13.901 13.3446 14.0579 13.6224 14.3283C13.9003 14.5986 14.0557 14.9611 14.0556 15.3385V19.9736C14.0556 21.0922 15.0138 22 16.1944 22H19.8611C20.4284 22 20.9724 21.7865 21.3735 21.4065C21.7747 21.0265 22 20.5111 22 19.9736V9.198C21.9999 8.81861 21.9124 8.4438 21.7435 8.09979C21.5746 7.75579 21.3284 7.45088 21.0222 7.20638L12.7722 0.613161Z" fill="#CCCCCC"/>
</svg>
