<svg width="40" height="40" viewBox="0 0 40 40" fill="none" xmlns="http://www.w3.org/2000/svg">
<rect x="0.5" y="0.5" width="39" height="39" rx="19.5" fill="white"/>
<rect x="0.5" y="0.5" width="39" height="39" rx="19.5" stroke="#CCCCCC"/>
<path d="M34.8625 33.5907C32.5403 29.4141 28.8949 26.4835 24.6589 25.2407C26.7184 24.1511 28.3652 22.3713 29.3339 20.1883C30.3026 18.0053 30.5367 15.5464 29.9984 13.208C29.4602 10.8696 28.181 8.78805 26.3671 7.29894C24.5531 5.80984 22.3102 5 20 5C17.6898 5 15.4469 5.80984 13.6329 7.29894C11.819 8.78805 10.5398 10.8696 10.0016 13.208C9.46333 15.5464 9.69742 18.0053 10.6661 20.1883C11.6348 22.3713 13.2816 24.1511 15.3411 25.2407C11.1051 26.482 7.45967 29.4126 5.13755 33.5907C5.07379 33.6951 5.03097 33.8118 5.01168 33.9339C4.99239 34.056 4.99703 34.1808 5.0253 34.301C5.05358 34.4211 5.10492 34.5341 5.17622 34.6331C5.24753 34.732 5.33734 34.815 5.44024 34.8769C5.54314 34.9388 5.65701 34.9784 5.775 34.9933C5.89298 35.0082 6.01265 34.9981 6.1268 34.9637C6.24095 34.9292 6.34722 34.8711 6.43921 34.7927C6.53121 34.7144 6.60704 34.6175 6.66213 34.5079C9.48363 29.434 14.4686 26.4056 20 26.4056C25.5314 26.4056 30.5164 29.434 33.3379 34.5079C33.393 34.6175 33.4688 34.7144 33.5608 34.7927C33.6528 34.8711 33.7591 34.9292 33.8732 34.9637C33.9874 34.9981 34.107 35.0082 34.225 34.9933C34.343 34.9784 34.4569 34.9388 34.5598 34.8769C34.6627 34.815 34.7525 34.732 34.8238 34.6331C34.8951 34.5341 34.9464 34.4211 34.9747 34.301C35.003 34.1808 35.0076 34.056 34.9883 33.9339C34.969 33.8118 34.9262 33.6951 34.8625 33.5907ZM11.4812 15.7044C11.4812 13.9507 11.9808 12.2364 12.9168 10.7783C13.8529 9.32016 15.1834 8.18369 16.74 7.51259C18.2966 6.84149 20.0094 6.6659 21.6619 7.00802C23.3144 7.35015 24.8324 8.19462 26.0237 9.43465C27.2151 10.6747 28.0265 12.2546 28.3552 13.9746C28.6839 15.6945 28.5152 17.4773 27.8704 19.0975C27.2256 20.7177 26.1337 22.1025 24.7328 23.0768C23.3319 24.0511 21.6849 24.5711 20 24.5711C17.7415 24.5683 15.5763 23.6332 13.9793 21.971C12.3823 20.3087 11.4839 18.0551 11.4812 15.7044Z" fill="#CCCCCC"/>
</svg>
