<svg width="26" height="23" viewBox="0 0 26 23" fill="none" xmlns="http://www.w3.org/2000/svg">
<path d="M11.5556 21.2357C11.5556 21.567 11.7077 21.8847 11.9786 22.119C12.2495 22.3533 12.6169 22.4849 13 22.4849C13.3831 22.4849 13.7505 22.3533 14.0214 22.119C14.2923 21.8847 14.4444 21.567 14.4444 21.2357V12.4916H24.5556C24.9386 12.4916 25.306 12.36 25.5769 12.1257C25.8478 11.8915 26 11.5737 26 11.2424C26 10.9111 25.8478 10.5934 25.5769 10.3591C25.306 10.1249 24.9386 9.99327 24.5556 9.99327H14.4444V1.24916C14.4444 0.917862 14.2923 0.600133 14.0214 0.36587C13.7505 0.131607 13.3831 0 13 0C12.6169 0 12.2495 0.131607 11.9786 0.36587C11.7077 0.600133 11.5556 0.917862 11.5556 1.24916V9.99327H1.44444C1.06135 9.99327 0.693954 10.1249 0.423068 10.3591C0.152182 10.5934 0 10.9111 0 11.2424C0 11.5737 0.152182 11.8915 0.423068 12.1257C0.693954 12.36 1.06135 12.4916 1.44444 12.4916H11.5556V21.2357Z" fill="black"/>
</svg>
