<svg width="24" height="24" viewBox="0 0 24 24" fill="none" xmlns="http://www.w3.org/2000/svg">
<path d="M12 4.59499C10.9106 3.59275 9.48426 3.03664 8.00398 3.03699C7.2205 3.03769 6.44491 3.19339 5.72185 3.4951C4.9988 3.79682 4.34258 4.23859 3.79098 4.79499C1.43798 7.15799 1.43898 10.854 3.79298 13.207L11.125 20.539C11.295 20.838 11.623 21.031 12 21.031C12.1548 21.0295 12.3071 20.9917 12.4446 20.9207C12.5822 20.8496 12.7011 20.7473 12.792 20.622L20.207 13.207C22.561 10.853 22.561 7.15799 20.205 4.79099C19.6535 4.23579 18.9978 3.79503 18.2755 3.49402C17.5532 3.19302 16.7785 3.0377 15.996 3.03699C14.5157 3.03664 13.0894 3.59275 12 4.59499ZM18.791 6.20499C20.354 7.77599 20.355 10.23 18.793 11.793L12 18.586L5.20698 11.793C3.64498 10.23 3.64598 7.77599 5.20498 6.20899C5.96498 5.45299 6.95898 5.03699 8.00398 5.03699C9.04898 5.03699 10.039 5.45299 10.793 6.20699L11.293 6.70699C11.4805 6.89446 11.7348 6.99977 12 6.99977C12.2651 6.99977 12.5195 6.89446 12.707 6.70699L13.207 6.20699C14.719 4.69799 17.281 4.70199 18.791 6.20499Z" fill="black"/>
</svg>
