<svg width="50" height="50" viewBox="0 0 50 50" fill="none" xmlns="http://www.w3.org/2000/svg">
<path d="M25 7.14286C20.264 7.14286 15.722 9.02423 12.3731 12.3731C9.02423 15.722 7.14286 20.264 7.14286 25C7.14286 29.736 9.02423 34.278 12.3731 37.6269C15.722 40.9758 20.264 42.8571 25 42.8571C29.736 42.8571 34.278 40.9758 37.6269 37.6269C40.9758 34.278 42.8571 29.736 42.8571 25C42.8571 20.264 40.9758 15.722 37.6269 12.3731C34.278 9.02423 29.736 7.14286 25 7.14286ZM50 25C50 31.6304 47.3661 37.9893 42.6777 42.6777C37.9893 47.3661 31.6304 50 25 50C18.3696 50 12.0107 47.3661 7.32233 42.6777C2.63392 37.9893 0 31.6304 0 25C0 18.3696 2.63392 12.0107 7.32233 7.32233C12.0107 2.63392 18.3696 0 25 0C31.6304 0 37.9893 2.63392 42.6777 7.32233C47.3661 12.0107 50 18.3696 50 25Z" fill="#699BF7"/>
</svg>
