<svg width="50" height="50" viewBox="0 0 50 50" fill="none" xmlns="http://www.w3.org/2000/svg">
<path d="M48.9466 43.8952C49.6173 44.5659 49.994 45.4755 49.994 46.4239C49.994 47.3723 49.6173 48.2819 48.9466 48.9526C48.2759 49.6232 47.3662 50 46.4177 50C45.4692 50 44.5596 49.6232 43.8889 48.9526L25 30.0589L6.10514 48.9466C5.43446 49.6173 4.52481 49.994 3.57631 49.994C2.62782 49.994 1.71817 49.6173 1.04748 48.9466C0.376789 48.276 9.99404e-09 47.3664 0 46.4179C-9.99404e-09 45.4695 0.376789 44.5599 1.04748 43.8893L19.9423 25.0015L1.05343 6.10776C0.382739 5.43711 0.00595032 4.52751 0.00595033 3.57907C0.00595034 2.63063 0.382739 1.72104 1.05343 1.05039C1.72412 0.379741 2.63376 0.00297443 3.58226 0.00297442C4.53076 0.00297441 5.44041 0.379741 6.1111 1.05039L25 19.9441L43.8949 1.04741C44.5655 0.376766 45.4752 -1.5801e-08 46.4237 0C47.3722 1.5801e-08 48.2818 0.376766 48.9525 1.04741C49.6232 1.71806 50 2.62766 50 3.5761C50 4.52454 49.6232 5.43413 48.9525 6.10478L30.0577 25.0015L48.9466 43.8952Z" fill="#F24E1E"/>
</svg>
